<mxfile host="app.diagrams.net" modified="2024-03-08T16:25:07.490Z" agent="Mozilla/5.0 (Macintosh; Intel Mac OS X 10.15; rv:109.0) Gecko/20100101 Firefox/118.0" version="24.0.2" etag="0KGoOauq_c1XIMNAm1-u" type="github">
  <diagram name="Seite-1" id="BmU4uW7AjJo3aO9RuXPk">
    <mxGraphModel>
      <root>
        <mxCell id="0" />
        <mxCell id="1" parent="0" />
      </root>
    </mxGraphModel>
  </diagram>
</mxfile>
